<?xml version="1.0" encoding="UTF-8"?>
<svg version="1.0" viewBox="0 0 270 251" xmlns="http://www.w3.org/2000/svg" xmlns:xlink="http://www.w3.org/1999/xlink">
 <defs>
  <linearGradient id="a">
   <stop stop-color="#c00000" stop-opacity=".37113" offset="0"/>
   <stop stop-color="#c00000" offset=".5"/>
   <stop stop-color="#c00000" stop-opacity=".70103" offset="1"/>
  </linearGradient>
  <radialGradient id="f" cx="159.36" cy="20.579" r="20.764" gradientTransform="matrix(1 0 0 1.0079 0 -.16242)" gradientUnits="userSpaceOnUse" xlink:href="#a"/>
  <radialGradient id="g" cx="171.59" cy="59.301" r="54.233" gradientTransform="matrix(1 0 0 .48811 0 30.356)" gradientUnits="userSpaceOnUse" xlink:href="#a"/>
  <radialGradient id="h" cx="215.65" cy="137.32" r="54.793" gradientTransform="matrix(1 0 0 .98888 0 1.5268)" gradientUnits="userSpaceOnUse" xlink:href="#a"/>
  <radialGradient id="i" cx="82.173" cy="155.38" r="82.009" gradientTransform="matrix(1 0 0 1.1721 0 -26.735)" gradientUnits="userSpaceOnUse" xlink:href="#a"/>
 </defs>
 <path d="m0.66402 117.86c28.89 20.92 55.1 42.48 60.426 69.06 14.055 56.94 77.36 0.3 76.03-27.89-1.65-36.54-32.38-9.92-38.264 2.24-4.577 9.47-15.708-1.12-20.585-11.28-4.03-8.41-0.581-19.84-0.581-19.84 0.683-6.4 5.614-8.55 10.625-10.63 31.875-18.91 20.265-43.448 12.945-42.826-16.588 1.413-29.182 26.966-43.158 42.826-6.009 6.71-16.211-29.041-30.545-31.869 24.991-2.481 45.781-24.618 68.062-27.889 43.011 0.049 38.591 35.623 24.901 62.418 36.42-16.06 43.16 16.76 43.16 41.17 0 15.98-9.27 72.69-62.08 87.65h-17.269c-29.321-6.66-39.837-34.47-42.166-54.78-2.326-20.29-7.905-25.51-16.268-36.52 3.079 0.07 9.874 10.07 16.268 21.91-7.873-23.29-26.585-42.87-41.501-63.75z" fill="url(#i)"/>
 <path d="m196.72 142.93c-2.36 7.59 2.84 16.91 4.48 23.24 2.48 9.6-0.92 17.1-0.92 17.1-8.45 18.45-27.09-6.71-28.96-14.77-1.87-8.07-0.47-17.21-8.94-22.04-0.04-0.95-0.89-4.97-1.08-5.44 4.31 1.74 8.69 2.56 13.01 6.89 0.3-43.28 26.26-65.47 56.87-64.228 64.96 2.627 41.28 103.53-19.51 107.32 7.82-1.9 14.08-5.1 20.04-8.55-9.95 1.69-37.25 5.79-30.75-1.18 14.55-15.58 42.02-30.51 41.66-49.04s-32.39-32.755-45.9 10.7z" fill="url(#h)"/>
 <path d="m117.85 38.771c6.48 9.553 49.68 47.008 77.48 3.756 3.32-6.442 9.04-9.6 17.37-9.156 4.82 0.624 14.76 0.24 12.21 8.921-15.26 51.942-87.36 63.708-107.06-3.521z" fill="url(#g)"/>
 <path d="m139.1 3.4383c8.38 1.7922 8.47 10.486 11.27 19.251 9.48 29.728 30.16 18.072 29.23 1.526 0.32-12.84-10.78-21.544-35.92-24.063 1.55 1.058 3.79 1.9458 4.22 3.2863-3.72-1.3788-6.31-0.7754-8.8 0z" fill="url(#f)"/>
</svg>
