<?xml version="1.0" standalone="no"?>
<!DOCTYPE svg PUBLIC "-//W3C//DTD SVG 20010904//EN"
 "http://www.w3.org/TR/2001/REC-SVG-20010904/DTD/svg10.dtd">
<svg version="1.0" xmlns="http://www.w3.org/2000/svg"
 width="540.000000pt" height="540.000000pt" viewBox="0 0 540.000000 540.000000"
 preserveAspectRatio="xMidYMid meet">
<metadata>
Created by potrace 1.11, written by Peter Selinger 2001-2013
</metadata>
<g transform="translate(0.000000,540.000000) scale(0.100000,-0.100000)"
fill="#000000" stroke="none">
<path d="M2894 5196 c11 -6 33 -23 49 -37 23 -19 27 -28 17 -34 -9 -5 -11 -4
-6 4 12 19 -36 27 -129 22 l-40 -3 30 -13 c17 -7 35 -11 40 -7 6 3 7 2 3 -2
-4 -5 5 -21 20 -36 15 -16 32 -34 37 -42 12 -14 53 -140 61 -184 10 -57 67
-213 100 -274 30 -55 90 -123 146 -165 23 -18 78 -34 83 -24 3 5 14 4 24 -3
26 -16 111 15 157 57 54 50 96 117 62 100 -7 -4 -5 0 4 8 10 8 19 23 21 33 1
10 6 25 10 32 5 7 3 12 -5 12 -10 0 -10 2 0 8 17 11 13 156 -7 207 -42 110
-122 188 -253 248 -90 40 -242 79 -358 91 -19 2 -35 4 -35 6 0 1 -11 3 -25 4
-22 3 -23 2 -6 -8z m293 -318 c2 -12 1 -19 -2 -16 -3 3 -8 16 -10 28 -2 12 -1
20 2 16 4 -4 8 -16 10 -28z m54 15 c13 -16 12 -17 -3 -4 -17 13 -22 21 -14 21
2 0 10 -8 17 -17z m-114 -18 c0 -8 -4 -12 -9 -9 -5 3 -6 10 -3 15 9 13 12 11
12 -6z m38 -15 c-3 -5 -1 -10 5 -10 7 0 9 -8 4 -22 -6 -20 -5 -21 8 -10 12 10
21 9 43 -2 16 -8 32 -13 37 -10 4 3 8 0 8 -6 0 -6 -10 -8 -24 -4 -20 5 -23 2
-21 -20 2 -14 -1 -26 -6 -26 -5 0 -9 7 -9 15 0 8 -4 15 -9 15 -14 0 -7 -30 10
-41 12 -8 2 -8 -40 0 -2 1 2 8 9 16 8 9 9 15 2 15 -6 0 -14 -4 -17 -10 -3 -5
-12 -10 -18 -10 -7 0 -4 5 6 11 9 5 17 15 17 21 0 6 -7 5 -17 -3 -10 -7 -14
-9 -10 -4 4 5 -2 14 -14 20 -19 11 -19 13 -5 18 11 5 15 3 10 -4 -4 -7 -1 -10
7 -7 7 2 14 18 15 34 2 33 2 34 10 34 3 0 2 -4 -1 -10z m83 -10 c-12 -19 -28
-27 -28 -14 0 6 30 33 38 34 1 0 -3 -9 -10 -20z m-118 -110 c0 -5 -2 -10 -4
-10 -3 0 -8 5 -11 10 -3 6 -1 10 4 10 6 0 11 -4 11 -10z m32 -36 c-9 -16 -10
-14 -9 8 1 15 6 23 11 18 4 -4 4 -16 -2 -26z"/>
<path d="M3185 4810 c-3 -6 -10 -8 -15 -5 -5 3 -12 1 -15 -5 -4 -6 -3 -10 2
-9 4 1 10 0 13 -1 23 -9 47 -4 45 9 -2 19 -21 26 -30 11z m25 -4 c0 -2 -7 -7
-16 -10 -8 -3 -12 -2 -9 4 6 10 25 14 25 6z"/>
<path d="M4239 4545 c-3 -2 -32 -6 -66 -9 -34 -3 -70 -10 -80 -15 -10 -5 -34
-16 -54 -25 -35 -15 -87 -66 -119 -116 -18 -28 -111 -153 -119 -160 -3 -3 -29
-30 -58 -61 -29 -31 -55 -54 -58 -51 -3 3 -8 -4 -12 -16 -3 -12 -9 -20 -13
-17 -9 6 -90 -45 -90 -56 0 -4 5 -11 10 -14 6 -3 10 -11 10 -17 0 -5 -8 0 -19
13 -14 18 -22 21 -32 12 -19 -16 -126 -52 -133 -45 -3 3 -6 1 -6 -5 0 -6 -15
-11 -32 -11 -18 0 -64 0 -103 -1 -189 -2 -332 48 -614 214 -9 6 -36 25 -59 43
-23 19 -42 31 -42 29 0 -3 -23 17 -50 44 -28 27 -55 47 -60 44 -6 -3 -7 1 -4
9 4 11 0 16 -11 16 -9 0 -14 3 -12 8 2 4 -9 21 -25 37 l-29 30 29 -80 c16 -44
39 -104 52 -133 21 -48 34 -74 94 -183 39 -71 142 -197 217 -264 43 -38 84
-72 91 -74 7 -2 15 -7 18 -11 13 -19 165 -98 202 -105 11 -3 25 -8 32 -13 11
-9 100 -33 141 -38 11 -1 20 -3 20 -4 0 -7 58 -10 155 -10 137 1 160 3 160 10
0 3 17 6 37 8 20 1 49 9 65 16 16 8 26 10 23 5 -4 -5 -2 -9 4 -9 5 0 12 4 15
9 3 4 19 11 36 15 17 3 29 10 25 16 -3 6 0 7 9 4 21 -8 167 65 257 128 135 95
271 249 351 398 38 71 74 160 70 173 -1 4 3 7 10 7 6 0 9 3 6 6 -4 3 0 22 8
41 9 19 13 38 10 40 -3 3 -1 13 4 23 12 22 -10 82 -27 76 -7 -3 -10 1 -7 8 7
18 -72 44 -147 49 -31 2 -60 7 -66 10 -6 4 -12 5 -14 2z m-89 -59 c0 -3 -4 -8
-10 -11 -5 -3 -10 -1 -10 4 0 6 5 11 10 11 6 0 10 -2 10 -4z m34 -24 c3 -5 -1
-9 -9 -9 -8 0 -12 4 -9 9 3 4 7 8 9 8 2 0 6 -4 9 -8z m186 4 c0 -3 -4 -8 -10
-11 -5 -3 -10 -1 -10 4 0 6 5 11 10 11 6 0 10 -2 10 -4z m-45 -45 c-9 -8 -36
-10 -30 -2 2 4 11 8 20 8 8 0 13 -3 10 -6z m-55 -21 c0 -5 -5 -10 -11 -10 -5
0 -7 5 -4 10 3 6 8 10 11 10 2 0 4 -4 4 -10z m131 -133 c-10 -9 -11 -8 -5 6 3
10 9 15 12 12 3 -3 0 -11 -7 -18z m-756 -225 c-3 -3 1 -12 7 -21 7 -9 2 -7
-11 4 l-24 20 7 -20 c5 -15 4 -17 -5 -8 -14 14 -6 30 16 30 8 0 13 -3 10 -5z
m-35 -47 c0 -5 -5 -3 -10 5 -5 8 -10 20 -10 25 0 6 5 3 10 -5 5 -8 10 -19 10
-25z m100 31 c0 -3 -4 -8 -10 -11 -5 -3 -10 -1 -10 4 0 6 5 11 10 11 6 0 10
-2 10 -4z m-165 -26 c-3 -5 1 -10 9 -10 9 0 16 -5 16 -10 0 -7 -7 -7 -20 0
-17 9 -20 30 -4 30 3 0 2 -4 -1 -10z m-19 -39 c-4 -6 -13 -11 -19 -10 -9 0 -9
2 1 6 6 2 12 9 12 14 0 6 -5 7 -12 3 -7 -5 -8 -3 -3 5 5 9 11 9 17 3 6 -6 7
-15 4 -21z m-38 -6 c0 -30 -7 -28 -13 4 -2 11 0 21 4 21 5 0 9 -11 9 -25z
m-23 -26 c-4 -5 -12 -9 -18 -8 -9 0 -8 2 1 6 6 2 9 10 6 15 -4 7 -2 8 5 4 6
-4 9 -12 6 -17z m135 11 c-8 -5 -19 -10 -25 -10 -5 0 -3 5 5 10 8 5 20 10 25
10 6 0 3 -5 -5 -10z m-200 -15 c0 -2 -6 -5 -13 -8 -8 -3 -14 1 -14 8 0 7 6 11
14 8 7 -3 13 -6 13 -8z m30 -5 c0 -5 -2 -10 -4 -10 -3 0 -8 5 -11 10 -3 6 -1
10 4 10 6 0 11 -4 11 -10z m-80 -15 c0 -7 -30 -13 -34 -7 -3 4 4 9 15 9 10 1
19 0 19 -2z"/>
<path d="M1904 4008 c-3 -4 -11 -5 -19 -1 -9 3 -21 0 -29 -6 -7 -6 -15 -8 -18
-6 -6 6 -91 -19 -118 -34 -9 -5 -30 -12 -48 -16 -18 -3 -32 -11 -32 -16 0 -5
-3 -8 -8 -6 -14 4 -92 -36 -86 -44 3 -5 -2 -6 -11 -3 -8 4 -22 1 -30 -6 -15
-12 -100 -60 -153 -85 -18 -9 -30 -20 -27 -24 3 -5 -3 -7 -13 -4 -10 2 -28 -5
-41 -16 -13 -12 -30 -21 -37 -21 -7 0 -14 -3 -16 -7 -1 -5 -33 -24 -70 -43
-38 -19 -68 -38 -68 -43 0 -4 -4 -5 -10 -2 -13 8 -52 -19 -42 -30 4 -5 2 -5
-5 -1 -7 4 -34 -4 -61 -18 -27 -14 -52 -22 -56 -19 -3 4 -6 2 -6 -4 0 -6 -16
-14 -35 -17 -19 -4 -35 -11 -35 -17 0 -6 -4 -8 -8 -5 -5 3 -21 -1 -36 -9 -15
-8 -30 -14 -34 -13 -4 2 -27 -3 -52 -10 -49 -13 -84 -20 -115 -22 -13 0 -5 -8
27 -25 77 -39 157 -130 253 -285 32 -52 68 -111 81 -130 12 -19 38 -62 59 -95
36 -57 98 -125 115 -125 34 0 89 64 280 325 69 94 127 172 130 175 3 3 23 28
45 55 21 28 72 84 112 124 40 41 73 79 73 83 0 4 3 7 8 6 11 -3 82 43 82 53 0
5 3 8 8 7 4 0 24 7 45 16 21 9 52 20 70 23 18 3 35 11 39 17 5 8 8 7 8 -1 0
-7 9 -10 21 -8 32 6 100 -69 126 -138 29 -78 26 -205 -7 -292 -65 -170 -231
-339 -437 -445 -44 -22 -88 -49 -99 -60 -47 -48 -53 -57 -57 -80 -3 -14 -8
-36 -11 -50 -25 -108 -32 -206 -15 -227 9 -11 10 -14 2 -9 -10 5 -12 -2 -9
-26 2 -18 4 -43 5 -55 0 -13 5 -23 10 -23 4 0 7 11 6 25 -2 14 1 23 7 19 5 -3
7 -13 4 -21 -4 -9 -1 -13 6 -11 21 7 15 31 -10 44 -19 10 -21 12 -7 18 9 3 13
10 10 16 -3 5 -1 10 5 10 7 0 9 -8 5 -19 -3 -11 1 -24 11 -32 15 -12 16 -11
10 8 -10 32 8 36 40 8 16 -14 35 -23 42 -20 6 2 12 0 12 -5 0 -17 -22 -11 -57
16 -35 26 -46 18 -15 -12 16 -17 16 -18 -2 -11 -14 6 -17 4 -12 -9 3 -8 6 -18
6 -21 0 -2 7 3 16 11 11 12 20 13 33 6 10 -5 21 -6 25 -3 3 3 6 1 6 -6 0 -7
-7 -11 -14 -8 -10 4 -13 1 -9 -8 3 -8 9 -12 14 -9 9 5 13 -9 10 -33 -1 -6 6
-10 16 -8 10 2 20 4 23 4 3 1 -1 5 -7 9 -7 4 -15 25 -17 45 l-5 37 21 -20 c12
-11 25 -20 30 -20 16 0 24 -5 56 -38 19 -18 31 -36 27 -40 -4 -4 -9 -2 -12 3
-9 24 -22 39 -29 32 -4 -4 -3 -12 3 -18 6 -6 9 -18 6 -27 -4 -10 -2 -13 5 -8
6 4 23 1 38 -7 22 -12 24 -15 10 -20 -9 -4 -15 -3 -12 2 5 8 -23 26 -29 19
-10 -10 -8 -42 3 -45 8 -3 10 2 6 14 -5 14 -4 15 4 3 6 -8 9 -17 6 -21 -2 -4
5 -14 16 -22 17 -12 18 -15 6 -20 -9 -4 -13 -13 -10 -22 3 -8 10 -13 14 -10 5
3 7 -3 6 -12 -4 -29 -30 -26 -48 5 -9 15 -26 28 -38 29 -17 2 -19 -1 -10 -12
6 -8 8 -20 4 -26 -5 -9 -2 -10 11 -5 11 4 22 2 27 -6 14 -23 9 -33 -7 -12 -13
17 -14 17 -15 2 0 -9 9 -23 20 -31 18 -13 19 -15 5 -21 -9 -3 -14 -2 -11 3 3
5 0 14 -8 20 -11 10 -14 7 -12 -13 1 -18 9 -27 26 -32 14 -4 28 -7 33 -6 4 1
7 -2 7 -7 0 -5 16 -7 36 -5 38 3 99 57 90 80 -3 7 2 15 11 18 9 4 13 13 9 22
-3 8 -2 12 4 9 5 -3 17 7 26 22 19 31 188 201 219 221 93 58 119 72 171 90 99
34 183 20 236 -41 55 -62 87 -186 83 -323 -2 -98 -7 -129 -30 -189 -30 -81
-114 -236 -156 -289 -195 -247 -378 -401 -579 -487 -242 -104 -434 -80 -576
74 -75 81 -156 255 -179 384 -17 102 -103 285 -201 430 -93 138 -206 263 -400
444 -56 52 -350 289 -358 289 -3 0 -15 8 -25 18 -25 22 -38 32 -81 62 -37 26
-42 30 -79 60 -49 40 -48 14 1 -31 10 -9 18 -21 18 -28 0 -6 5 -11 10 -11 6 0
10 -6 10 -14 0 -8 4 -16 8 -18 4 -1 18 -18 31 -36 12 -18 27 -30 32 -27 5 4 6
0 4 -7 -3 -8 11 -31 31 -53 20 -22 37 -42 38 -45 0 -3 4 -4 9 -2 4 1 6 -2 5
-6 -2 -5 47 -76 108 -158 234 -315 351 -507 437 -716 23 -54 14 -47 -23 20
-91 161 -248 364 -258 333 -2 -5 26 -49 62 -96 83 -108 138 -202 170 -285 27
-74 61 -209 70 -285 4 -27 9 -68 11 -90 3 -22 10 -60 15 -85 5 -25 12 -56 14
-70 7 -46 38 -144 74 -235 41 -107 131 -267 145 -258 6 3 7 1 4 -4 -6 -9 20
-49 63 -96 8 -9 21 -23 28 -32 7 -8 18 -12 24 -9 7 4 8 2 4 -4 -4 -6 3 -19 14
-29 12 -10 38 -33 58 -51 20 -18 49 -38 65 -45 15 -6 27 -15 27 -19 0 -5 6 -8
14 -8 8 0 16 -3 18 -7 7 -16 97 -55 109 -48 7 5 10 4 6 -3 -7 -10 87 -45 119
-45 8 0 14 -4 14 -8 0 -4 86 -8 190 -9 110 0 190 3 190 9 0 5 6 9 13 8 39 -1
58 4 51 15 -4 6 -3 8 3 5 13 -8 83 14 83 25 0 5 4 7 9 4 5 -3 22 1 37 9 16 8
33 15 38 15 5 0 15 8 23 18 8 9 12 12 8 5 -3 -7 29 8 72 32 43 24 77 48 76 53
-1 6 5 9 13 8 21 -1 153 96 153 113 1 8 4 11 8 8 3 -4 22 10 42 30 20 21 39
37 44 35 4 -1 7 2 7 7 0 5 17 27 38 48 61 62 93 104 86 115 -4 6 -2 8 3 5 6
-4 16 0 23 8 7 8 10 15 6 15 -3 0 2 9 12 19 37 41 43 52 36 63 -4 6 -3 8 4 4
11 -7 27 29 24 54 -2 12 -1 13 7 1 7 -11 11 -10 19 6 8 15 8 23 -1 32 -9 10
-8 11 6 6 12 -5 17 -2 17 9 0 9 5 16 11 16 5 0 8 4 4 9 -3 5 -1 12 5 16 17 10
42 73 34 86 -4 7 -3 9 3 6 14 -9 47 68 38 85 -5 7 -5 10 0 6 10 -9 35 37 37
69 1 12 6 23 11 23 4 0 5 4 2 10 -3 5 -2 10 3 10 15 0 21 37 8 51 -8 9 -8 10
2 5 11 -7 17 5 13 28 -1 4 3 14 10 22 6 8 9 21 5 29 -4 11 -2 14 6 9 7 -5 9 0
6 14 -4 12 -2 22 4 22 5 0 6 5 3 10 -3 6 -1 10 5 10 6 0 10 6 8 12 -2 12 3 41
17 106 3 12 7 32 10 44 2 12 -1 26 -8 30 -9 6 -8 8 4 8 9 0 15 9 16 23 1 12 4
46 7 75 4 39 2 51 -7 45 -9 -5 -9 -3 0 8 18 22 19 174 2 196 -11 13 -11 15 0
9 11 -7 12 2 6 50 -3 33 -8 81 -11 107 -2 27 -7 54 -11 60 -4 7 12 -3 36 -22
43 -34 91 -99 91 -124 0 -8 3 -17 7 -21 4 -4 9 -19 11 -34 2 -15 9 -30 15 -34
9 -6 9 -8 -1 -8 -9 0 -10 -5 -4 -17 5 -10 8 -28 7 -41 -1 -13 2 -25 6 -28 5
-2 6 -11 2 -19 -3 -8 -2 -23 2 -32 5 -10 9 -34 11 -53 2 -19 8 -36 14 -38 5
-2 10 -13 10 -24 0 -27 96 -169 160 -238 28 -29 50 -51 50 -48 0 3 14 -7 31
-23 17 -16 36 -29 43 -29 7 0 17 -5 24 -12 20 -20 86 -28 127 -15 37 12 87 56
78 70 -4 6 -1 7 6 3 8 -5 14 0 18 13 6 22 32 28 50 10 10 -10 177 -14 248 -5
40 4 143 17 175 22 104 13 126 17 136 25 6 5 14 6 17 2 4 -3 -1 -12 -11 -18
-35 -25 -221 -115 -236 -115 -9 0 -16 -4 -16 -9 0 -5 -6 -9 -12 -8 -30 1 -48
-4 -48 -12 0 -10 171 23 200 39 11 6 20 8 20 4 0 -3 6 -2 13 3 6 6 30 16 52
23 22 7 56 22 75 33 19 10 53 29 75 40 43 24 56 33 86 60 10 9 19 15 19 12 0
-6 32 20 72 58 16 15 31 27 34 27 10 0 34 28 34 40 0 6 5 8 10 5 6 -3 10 -3
10 2 0 4 22 32 50 62 27 30 47 58 43 64 -3 6 -1 7 6 3 6 -4 14 0 18 11 4 10
10 20 13 23 16 11 98 149 93 154 -4 3 -2 6 4 6 17 0 33 46 20 59 -9 9 -8 11 6
6 13 -6 18 0 23 24 4 17 11 34 15 37 5 3 7 10 4 15 -4 5 -1 9 4 9 6 0 11 8 11
18 0 10 4 22 9 28 8 8 38 103 47 147 2 10 5 26 8 35 7 23 16 79 21 124 2 21 6
42 10 48 3 5 0 10 -7 10 -8 0 -9 3 -3 8 13 9 13 102 1 121 -6 9 -5 12 2 7 12
-7 11 42 -2 63 -7 10 -5 12 4 6 9 -5 11 -4 6 3 -4 7 -9 29 -12 49 -2 21 -6 47
-9 58 -2 11 -4 24 -4 28 -1 5 -7 5 -13 1 -10 -6 -10 -5 -1 7 10 12 10 18 1 27
-7 7 -9 12 -5 12 4 0 2 10 -5 23 -6 12 -13 31 -15 42 -2 10 -7 22 -12 25 -4 3
-12 19 -18 35 -5 17 -17 30 -26 30 -8 0 -19 4 -24 8 -4 5 -3 7 2 5 6 -2 12 1
14 6 6 11 -91 135 -105 136 -7 0 -14 7 -17 15 -4 8 -25 26 -49 41 -24 15 -46
32 -50 38 -4 6 -8 7 -8 2 0 -5 -8 -2 -19 8 -10 9 -28 18 -39 21 -11 2 -30 9
-42 15 -11 6 -26 8 -32 4 -7 -4 -8 -3 -4 4 4 7 0 13 -11 14 -36 3 -48 5 -63
11 -45 16 -85 23 -202 31 -48 3 -68 1 -68 -7 0 -8 -3 -8 -8 -2 -5 8 -67 13
-67 6 0 -1 -18 -4 -40 -6 -49 -4 -100 -12 -129 -20 -82 -23 -156 -50 -156 -57
0 -5 -4 -6 -10 -3 -21 13 -239 -124 -232 -147 1 -5 -2 -7 -7 -4 -15 10 -137
-121 -197 -209 -86 -131 -164 -316 -189 -454 -3 -14 -7 -35 -9 -46 -3 -19 -15
-97 -22 -155 -2 -14 -4 -54 -5 -90 -1 -36 -3 -68 -6 -73 -2 -4 -18 4 -35 18
-16 14 -36 25 -44 25 -8 0 -14 4 -14 9 0 8 -20 18 -42 22 -4 0 -33 11 -64 24
l-57 23 -28 83 c-15 46 -40 108 -56 138 -30 60 -143 181 -168 181 -8 0 -15 4
-15 9 0 4 -30 18 -67 29 -53 18 -84 21 -162 18 -53 -2 -108 -7 -122 -10 -43
-10 -147 -44 -169 -56 -25 -14 -25 -10 4 53 93 198 145 388 150 553 2 39 5 75
9 80 3 6 0 23 -8 38 -8 14 -10 24 -6 22 5 -3 4 14 0 37 -5 23 -11 55 -14 71
-2 16 -9 33 -15 36 -6 4 -10 11 -9 16 4 13 -23 64 -33 64 -5 0 -6 5 -3 10 3 6
1 10 -6 10 -7 0 -9 3 -6 6 8 8 -84 104 -99 104 -7 0 -14 7 -18 15 -3 8 -15 15
-26 15 -14 0 -19 4 -14 12 5 8 2 9 -9 5 -10 -4 -17 -2 -17 4 0 6 -7 8 -16 5
-8 -3 -13 -2 -10 3 7 11 -100 45 -115 35 -7 -4 -9 -3 -5 4 4 6 -1 11 -11 11
-20 1 -68 8 -68 11 0 9 -186 16 -191 8z m83 -33 c0 -8 -4 -12 -9 -9 -5 3 -6
10 -3 15 9 13 12 11 12 -6z m20 -40 c0 -8 -4 -12 -9 -9 -5 3 -6 10 -3 15 9 13
12 11 12 -6z m178 6 c3 -5 2 -12 -3 -15 -5 -3 -9 1 -9 9 0 17 3 19 12 6z m142
-56 c0 -8 -4 -12 -9 -9 -5 3 -6 10 -3 15 9 13 12 11 12 -6z m56 -50 c4 -8 3
-16 -1 -19 -4 -3 -9 4 -9 15 -2 23 3 25 10 4z m42 -4 c3 -5 2 -12 -3 -15 -5
-3 -9 1 -9 9 0 17 3 19 12 6z m2185 -336 c0 -5 -5 -3 -10 5 -5 8 -10 20 -10
25 0 6 5 3 10 -5 5 -8 10 -19 10 -25z m276 -61 c1 -9 0 -13 -4 -10 -3 4 -7 14
-8 22 -1 9 0 13 4 10 3 -4 7 -14 8 -22z m99 -53 c3 -5 2 -12 -3 -15 -5 -3 -9
1 -9 9 0 17 3 19 12 6z m169 -119 c3 -5 -1 -9 -9 -9 -8 0 -12 4 -9 9 3 4 7 8
9 8 2 0 6 -4 9 -8z m16 -77 c0 -7 -30 -13 -34 -7 -3 4 4 9 15 9 10 1 19 0 19
-2z m116 -47 c3 -4 -1 -5 -10 -4 -8 1 -18 5 -22 8 -3 4 1 5 10 4 8 -1 18 -5
22 -8z m19 -70 c5 4 5 1 1 -6 -6 -10 -11 -10 -22 -1 -8 6 -14 14 -14 16 0 3 6
0 13 -6 8 -6 18 -7 22 -3z m-95 -22 c0 -3 -4 -8 -10 -11 -5 -3 -10 -1 -10 4 0
6 5 11 10 11 6 0 10 -2 10 -4z m-576 -161 c93 -47 183 -148 203 -229 3 -11 7
-54 9 -95 4 -103 -36 -207 -124 -321 -51 -65 -202 -214 -312 -305 -170 -143
-294 -251 -327 -286 -12 -13 -32 -33 -44 -44 l-21 -20 6 21 c34 112 24 217
-39 404 -73 218 -76 256 -29 402 18 55 38 106 43 111 8 8 5 17 -7 31 -15 18
-15 19 0 8 9 -7 18 -9 21 -5 35 58 55 102 49 108 -4 5 -2 5 5 1 7 -3 14 2 18
14 9 29 123 144 175 176 80 49 127 62 225 60 78 -1 98 -5 149 -31z m-2984
-285 c0 -5 -5 -10 -11 -10 -5 0 -7 5 -4 10 3 6 8 10 11 10 2 0 4 -4 4 -10z
m-60 -20 c0 -5 -5 -10 -11 -10 -5 0 -7 5 -4 10 3 6 8 10 11 10 2 0 4 -4 4 -10z
m150 4 c0 -8 -19 -13 -24 -6 -3 5 1 9 9 9 8 0 15 -2 15 -3z m-90 -24 c0 -5 -5
-10 -11 -10 -5 0 -7 5 -4 10 3 6 8 10 11 10 2 0 4 -4 4 -10z m177 -32 c2 -17
0 -19 -7 -8 -5 8 -6 18 -4 22 8 12 10 10 11 -14z m-236 -5 c13 -16 12 -17 -3
-4 -10 7 -18 15 -18 17 0 8 8 3 21 -13z m64 -3 c10 -11 16 -20 13 -20 -3 0
-13 9 -23 20 -10 11 -16 20 -13 20 3 0 13 -9 23 -20z m215 -20 c0 -5 -5 -10
-11 -10 -5 0 -7 5 -4 10 3 6 8 10 11 10 2 0 4 -4 4 -10z m-220 -20 c0 -4 -7
-7 -15 -6 -23 3 -26 12 -5 13 11 1 20 -2 20 -7z m290 6 c0 -2 -8 -10 -17 -17
-16 -13 -17 -12 -4 4 13 16 21 21 21 13z m-378 -43 c-2 -12 -6 -23 -7 -23 -1
0 -5 11 -7 23 -3 14 0 24 7 24 7 0 10 -10 7 -24z m147 -6 c3 0 13 -3 21 -8 8
-4 10 -9 4 -9 -6 0 -14 3 -18 7 -3 4 -13 8 -22 9 -11 2 -13 -4 -9 -19 5 -20 5
-20 -5 -4 -7 10 -9 21 -6 24 3 4 0 13 -6 22 -7 9 -2 7 11 -4 13 -11 26 -19 30
-18z m61 29 c0 -2 -7 -7 -16 -10 -8 -3 -12 -2 -9 4 6 10 25 14 25 6z m52 -20
c3 3 8 1 12 -4 11 -18 -25 -8 -41 12 -18 21 -18 21 3 3 11 -9 23 -14 26 -11z
m-239 -1 c-3 -9 -8 -14 -10 -11 -3 3 -2 9 2 15 9 16 15 13 8 -4z m198 -12 c13
-16 12 -17 -3 -4 -10 7 -18 15 -18 17 0 8 8 3 21 -13z m-149 0 c-6 -2 -9 -10
-6 -15 4 -7 2 -8 -5 -4 -13 9 -5 26 12 25 9 0 8 -2 -1 -6z m225 -31 c-10 -10
-14 -21 -11 -25 3 -3 -1 -4 -10 -3 -8 1 -19 6 -23 10 -4 4 -1 6 7 4 8 -2 14 3
12 10 -1 8 2 11 7 8 5 -4 12 -2 16 4 3 5 9 10 12 10 3 0 -1 -8 -10 -18z m-286
-10 c-7 -2 -18 1 -23 6 -8 8 -4 9 13 5 13 -4 18 -8 10 -11z m79 8 c0 -5 -8
-10 -17 -10 -15 0 -16 2 -3 10 19 12 20 12 20 0z m80 0 c0 -5 -5 -10 -11 -10
-5 0 -7 5 -4 10 3 6 8 10 11 10 2 0 4 -4 4 -10z m65 0 c-3 -5 -12 -10 -18 -10
-7 0 -6 4 3 10 19 12 23 12 15 0z m132 -13 c0 -8 -6 -14 -14 -14 -9 0 -10 4
-2 14 6 7 12 13 14 13 1 0 2 -6 2 -13z m-317 -7 c0 -5 -4 -10 -10 -10 -5 0
-10 5 -10 10 0 6 5 10 10 10 6 0 10 -4 10 -10z m95 -10 c0 -7 -6 -14 -13 -16
-7 -1 -8 0 -2 3 17 8 11 19 -10 20 -13 1 -18 -2 -14 -9 4 -7 2 -8 -5 -4 -6 4
-9 12 -6 17 9 13 50 4 50 -11z m75 3 c0 -3 -9 -3 -20 0 -15 4 -20 0 -21 -16 0
-12 -3 -16 -6 -9 -9 23 5 41 26 35 12 -3 21 -8 21 -10z m29 -6 c8 -10 7 -14
-2 -14 -8 0 -14 6 -14 14 0 7 1 13 2 13 2 0 8 -6 14 -13z m78 7 c-3 -3 -12 -4
-19 -1 -8 3 -5 6 6 6 11 1 17 -2 13 -5z m-242 -15 c11 -16 1 -19 -13 -3 -7 8
-8 14 -3 14 5 0 13 -5 16 -11z m45 -25 c0 -2 -7 -4 -15 -4 -8 0 -15 4 -15 10
0 5 7 7 15 4 8 -4 15 -8 15 -10z m23 1 c-3 -9 -8 -14 -10 -11 -3 3 -2 9 2 15
9 16 15 13 8 -4z m73 -3 c1 -6 2 -17 3 -23 0 -5 6 -7 11 -4 6 3 10 1 10 -4 0
-6 -4 -11 -10 -11 -11 0 -34 40 -23 41 4 0 -1 5 -12 10 l-20 9 20 -3 c11 -1
21 -8 21 -15z m77 -5 c7 3 9 2 4 -2 -4 -5 -17 -10 -28 -12 -16 -2 -18 -1 -7
11 7 8 15 10 16 5 2 -5 9 -6 15 -2z m30 -11 c-10 -13 -20 -22 -22 -20 -4 4 29
44 36 44 2 0 -4 -11 -14 -24z m-122 -27 c11 0 11 -2 1 -6 -14 -5 -52 24 -52
40 0 6 8 0 19 -11 10 -12 25 -22 32 -23z m169 15 c0 -8 -19 -13 -24 -6 -3 5 1
9 9 9 8 0 15 -2 15 -3z m84 -2 c3 -5 -1 -9 -9 -9 -8 0 -12 4 -9 9 3 4 7 8 9 8
2 0 6 -4 9 -8z m-111 -43 c-8 -8 -13 -7 -18 2 -5 8 -4 10 3 5 15 -9 16 6 2 22
-5 7 -2 5 7 -3 12 -11 14 -18 6 -26z m-83 11 c-10 -19 -40 -18 -40 2 0 6 6 5
15 -2 12 -10 15 -10 15 4 0 9 5 16 10 16 7 0 7 -6 0 -20z m130 16 c0 -2 -8
-10 -17 -17 -16 -13 -17 -12 -4 4 13 16 21 21 21 13z m-88 -20 c7 4 8 2 4 -5
-9 -13 -26 -5 -25 12 0 9 2 8 6 -1 2 -6 10 -9 15 -6z m-25 -38 c2 -18 0 -20
-7 -8 -12 18 -13 30 -2 30 4 0 9 -10 9 -22z m43 12 c0 -5 -8 -10 -17 -10 -15
0 -16 2 -3 10 19 12 20 12 20 0z m94 -1 c3 -3 -4 -5 -14 -6 -11 -1 -20 2 -20
7 0 8 25 8 34 -1z m66 1 c0 -5 -5 -10 -11 -10 -5 0 -7 5 -4 10 3 6 8 10 11 10
2 0 4 -4 4 -10z m-116 -25 c-4 -8 -11 -12 -16 -9 -6 4 -5 10 3 15 19 12 19 11
13 -6z m-26 -27 c-5 -15 -45 -21 -53 -8 -4 7 3 9 19 6 14 -3 26 0 26 5 0 5 3
9 6 9 3 0 4 -5 2 -12z m22 -5 c0 -5 -10 -19 -21 -33 l-21 -25 18 33 c18 32 24
38 24 25z m64 -24 c3 -3 -5 -5 -19 -5 -13 0 -22 3 -19 7 4 8 30 6 38 -2z m70
3 c3 -5 -1 -9 -9 -9 -8 0 -12 4 -9 9 3 4 7 8 9 8 2 0 6 -4 9 -8z m-187 -54
c-3 -7 -5 -2 -5 12 0 14 2 19 5 13 2 -7 2 -19 0 -25z m67 16 c3 -8 2 -12 -4
-9 -6 3 -10 10 -10 16 0 14 7 11 14 -7z m-20 -10 c3 -8 2 -12 -4 -9 -6 3 -10
10 -10 16 0 14 7 11 14 -7z m86 7 c0 -5 -8 -15 -17 -22 -16 -12 -17 -12 -6 2
7 9 10 19 6 22 -3 4 -1 7 5 7 7 0 12 -4 12 -9z m40 5 c0 -3 -4 -8 -10 -11 -5
-3 -10 -1 -10 4 0 6 5 11 10 11 6 0 10 -2 10 -4z m-145 -37 c-4 -5 -12 -9 -18
-8 -9 0 -8 2 1 6 6 2 9 10 6 15 -4 7 -2 8 5 4 6 -4 9 -12 6 -17z m29 -7 c3 -5
-1 -9 -9 -9 -8 0 -12 4 -9 9 3 4 7 8 9 8 2 0 6 -4 9 -8z m-29 -32 c0 -7 -6
-14 -13 -16 -7 -1 -8 0 -2 3 5 2 10 9 10 14 0 6 -4 8 -8 5 -4 -2 -14 0 -22 5
-11 7 -8 8 10 6 14 -2 25 -10 25 -17z m75 15 c0 -2 -6 -8 -13 -14 -10 -8 -14
-7 -14 2 0 8 6 14 14 14 7 0 13 -1 13 -2z m-54 -37 c-9 -12 -16 -19 -16 -15 0
11 24 47 28 42 2 -2 -3 -14 -12 -27z m34 -23 c0 -1 -6 -7 -13 -13 -10 -8 -13
-6 -13 7 0 11 6 17 13 14 7 -3 13 -6 13 -8z m-60 -10 c0 -1 -12 -2 -26 -2 -17
0 -22 2 -13 7 10 7 39 3 39 -5z m-50 -30 c0 -5 -5 -3 -10 5 -5 8 -10 20 -10
25 0 6 5 3 10 -5 5 -8 10 -19 10 -25z m22 -27 c-6 -6 -12 -5 -17 3 -5 8 -4 10
3 5 8 -5 12 1 13 16 1 18 2 19 6 4 3 -10 0 -23 -5 -28z m58 25 c0 -5 -5 -15
-10 -23 -7 -12 -9 -10 -7 8 1 19 17 33 17 15z m1130 -37 c0 -2 -8 -10 -17 -17
-16 -13 -17 -12 -4 4 13 16 21 21 21 13z m535 -306 c-3 -5 -12 -10 -18 -10 -7
0 -6 4 3 10 19 12 23 12 15 0z m30 -29 c3 -5 2 -12 -3 -15 -5 -3 -9 1 -9 9 0
17 3 19 12 6z m125 -65 c0 -3 -4 -8 -10 -11 -5 -3 -10 -1 -10 4 0 6 5 11 10
11 6 0 10 -2 10 -4z m115 -65 c-9 -8 -36 -10 -30 -2 2 4 11 8 20 8 8 0 13 -3
10 -6z m-815 -97 c0 -8 -19 -13 -24 -6 -3 5 1 9 9 9 8 0 15 -2 15 -3z m-169
-377 c-10 -9 -11 -8 -5 6 3 10 9 15 12 12 3 -3 0 -11 -7 -18z m24 -67 c3 -5 1
-10 -4 -10 -6 0 -11 5 -11 10 0 6 2 10 4 10 3 0 8 -4 11 -10z m-90 -160 c-3
-5 -12 -10 -18 -10 -7 0 -6 4 3 10 19 12 23 12 15 0z m-108 -135 c0 -8 -4 -12
-9 -9 -5 3 -6 10 -3 15 9 13 12 11 12 -6z m-186 -118 c-10 -9 -11 -8 -5 6 3
10 9 15 12 12 3 -3 0 -11 -7 -18z m69 -7 c0 -5 -2 -10 -4 -10 -3 0 -8 5 -11
10 -3 6 -1 10 4 10 6 0 11 -4 11 -10z m-343 -55 c0 -8 -4 -15 -9 -15 -10 0
-11 14 -1 23 9 10 10 9 10 -8z m83 -41 c0 -8 -19 -13 -24 -6 -3 5 1 9 9 9 8 0
15 -2 15 -3z m-23 -59 c0 -8 -4 -12 -9 -9 -5 3 -6 10 -3 15 9 13 12 11 12 -6z
m-27 -41 c0 -8 -19 -13 -24 -6 -3 5 1 9 9 9 8 0 15 -2 15 -3z m-390 -18 c0 -2
-7 -7 -16 -10 -8 -3 -12 -2 -9 4 6 10 25 14 25 6z m155 -35 c3 -5 2 -12 -3
-15 -5 -3 -9 1 -9 9 0 17 3 19 12 6z"/>
<path d="M1571 2271 c-23 -17 -23 -19 -6 -44 9 -15 13 -27 9 -27 -5 0 -1 -5 9
-11 9 -6 14 -15 11 -21 -5 -7 -2 -8 6 -3 10 6 12 4 7 -8 -4 -10 -2 -16 6 -14
7 1 11 -6 9 -15 -1 -9 7 -23 18 -31 11 -7 17 -17 12 -22 -4 -5 -1 -5 6 -1 7 4
12 1 12 -8 0 -8 4 -16 8 -18 4 -1 18 -18 31 -36 12 -18 26 -30 31 -27 4 3 10
-2 14 -10 3 -8 11 -15 18 -14 10 0 10 2 0 6 -10 4 -10 8 -2 19 13 15 5 34 -13
34 -8 0 -7 -3 2 -9 10 -7 7 -9 -12 -8 -14 1 -23 5 -20 10 2 4 -2 7 -9 7 -10 0
-10 2 1 9 9 6 10 11 2 15 -6 4 -11 2 -11 -5 0 -7 -3 -9 -6 -6 -4 4 -2 13 4 20
9 10 8 14 -3 14 -8 0 -11 -5 -8 -10 3 -6 1 -7 -6 -3 -6 4 -9 12 -6 17 4 5 1 9
-6 9 -6 0 -1 8 12 19 21 17 22 21 9 37 -14 18 -14 18 4 4 19 -15 19 -15 0 15
-12 18 -14 26 -5 21 10 -7 12 -5 6 4 -5 8 -4 11 3 7 15 -10 39 1 39 18 0 20
-14 19 -26 -2 -8 -14 -10 -15 -11 -3 0 12 -2 12 -9 2 -7 -11 -10 -10 -15 3 -3
9 -3 22 1 27 3 6 1 8 -4 5 -6 -4 -16 7 -23 24 -8 19 -16 26 -20 19 -4 -6 -19
-13 -34 -14 -21 -3 -24 -1 -15 10 16 19 9 17 -20 -5z m69 -16 c-7 -9 -10 -19
-6 -22 4 -4 11 -2 15 5 8 14 30 -24 37 -67 4 -19 2 -22 -13 -17 -12 4 -10 0 6
-12 22 -18 22 -50 0 -37 -5 4 -9 1 -9 -5 0 -8 -6 -8 -20 0 -21 11 -27 30 -9
30 5 0 8 -4 5 -8 -2 -4 6 -8 20 -8 13 0 24 4 24 9 0 5 -7 6 -16 3 -9 -3 -12
-2 -9 4 4 6 3 10 -2 9 -20 -3 -31 3 -52 32 -19 26 -20 33 -9 46 11 14 11 16
-4 10 -12 -4 -21 1 -28 16 -10 20 -10 21 3 4 12 -14 16 -15 21 -5 5 11 7 11
12 0 5 -10 10 -8 21 7 8 12 17 21 20 21 3 0 0 -7 -7 -15z"/>
<path d="M1611 2216 c-10 -12 -9 -20 6 -40 20 -28 44 -42 40 -23 -1 7 3 11 10
10 14 -3 8 40 -7 45 -6 2 -7 9 -3 15 3 7 2 8 -2 4 -13 -11 -15 -38 -3 -31 7 4
8 2 4 -5 -4 -6 -12 -9 -17 -5 -5 3 -7 9 -5 13 3 4 1 13 -3 19 -6 10 -11 10
-20 -2z m47 -34 c15 12 16 11 3 -5 -13 -16 -15 -16 -32 -1 -11 10 -19 22 -19
28 0 6 7 0 16 -12 13 -20 18 -21 32 -10z"/>
<path d="M1715 2270 c-3 -5 -1 -10 5 -10 6 0 8 -4 5 -10 -3 -5 5 -15 19 -22
14 -6 26 -15 26 -20 0 -5 -5 -6 -10 -3 -6 4 -10 3 -9 -2 3 -18 -2 -34 -9 -29
-4 2 -14 1 -22 -4 -11 -7 -11 -12 -2 -23 10 -11 8 -20 -9 -41 -11 -14 -18 -27
-15 -27 3 -1 12 -2 19 -3 6 0 12 -8 12 -16 0 -9 9 -14 20 -13 20 1 20 1 1 -13
-22 -15 -10 -19 13 -5 12 8 12 12 2 24 -8 11 -9 17 -1 22 6 3 8 12 4 18 -3 7
2 3 10 -7 23 -28 20 -7 -4 32 -11 18 -24 30 -29 27 -5 -3 -13 0 -17 6 -4 7 -3
9 4 5 6 -3 14 -2 17 4 5 8 11 7 21 -1 17 -14 19 2 2 22 -7 7 -4 6 6 -3 16 -14
17 -20 6 -32 -10 -13 -10 -16 0 -16 8 0 11 -3 7 -6 -9 -9 21 -64 35 -64 6 0 8
-3 5 -7 -8 -7 11 -33 24 -33 5 0 2 11 -6 24 -11 17 -13 26 -5 31 15 9 -9 38
-26 31 -8 -3 -13 -2 -13 2 1 4 0 9 -1 12 -1 3 -3 21 -4 40 -1 19 -5 41 -9 48
-5 6 -6 16 -2 21 9 16 -30 32 -44 18 -10 -9 -11 -8 -6 4 7 19 -10 35 -20 19z
m40 -168 c2 -27 -11 -38 -29 -23 -7 6 -17 7 -21 3 -5 -4 0 5 11 20 22 32 37
31 39 0z m75 -22 c0 -5 -2 -10 -4 -10 -3 0 -8 5 -11 10 -3 6 -1 10 4 10 6 0
11 -4 11 -10z"/>
<path d="M1731 2106 c-9 -10 -9 -16 -1 -21 6 -4 14 -4 17 -1 4 3 1 6 -7 6 -10
0 -10 3 0 15 7 8 10 15 7 15 -2 0 -10 -6 -16 -14z"/>
</g>
</svg>
